<?xml version="1.0" encoding="utf-8"?>
<!-- Generator: Adobe Illustrator 26.3.1, SVG Export Plug-In . SVG Version: 6.00 Build 0)  -->
<svg version="1.1" id="Layer_1" xmlns="http://www.w3.org/2000/svg" xmlns:xlink="http://www.w3.org/1999/xlink" x="0px" y="0px"
	 viewBox="0 0 963.9 531" style="enable-background:new 0 0 963.9 531;" xml:space="preserve">
<style type="text/css">
	.st0{fill:#E00C1A;}
	.st1{fill:#02377C;}
</style>
<g>
	<g>
		<g>
			<path class="st0" d="M769.8,0.1c-1.2,12.2-2.3,24.4-9.5,35c-5.7,8.3-13.2,12.3-23.3,10.8c-9.3-1.3-14.3-7.9-18-15.5
				c-4.8-9.5-5.5-20-6.1-30.4c3.3,0,6.7,0,10,0c0,2-0.1,4,0.1,5.9c0.7,7.3,6.3,15.4,12.2,16.5c7.7,1.4,15.3,1.2,20.5-6.2
				c3.4-4.8,5.4-10.2,5.2-16.2C763.8,0.1,766.8,0.1,769.8,0.1z"/>
			<path class="st0" d="M385.8,166.5c0-24.8,0-49.6,0-74.5c0-6.5-2.9-9.6-9.5-10c-9.8-0.6-9.7-0.6-9.3-10.6c0.1-2.5,0.7-3.5,3.4-3.5
				c24,0.1,48-0.2,72,0.3c30.5,0.7,46.2,18.2,56.2,45.3c5.3,14.4,7.5,29.5,7.5,45c-0.1,15.6-0.1,31.2-3.1,46.7
				c-4.2,20.9-12.3,39.5-29.3,53.1c-6.7,5.3-14.7,7.9-23,8.6c-26.8,2.2-53.6,0.5-80.4,1c-2.3,0-3.5-0.6-3.1-3c0-0.3,0-0.7,0-1
				c-0.3-10.1-0.3-10.1,9.6-10.7c6.8-0.4,9-2.8,9.1-10.2c0.1-11.7,0-23.3,0-35C385.8,194.2,385.8,180.3,385.8,166.5z M417,163.2
				c0,21-0.2,41.9,0.1,62.9c0.1,6.7,0.4,13.5,1.4,20.3c0.5,3.6,2.6,5.7,5.5,6.1c10.4,1.5,20.5,1.2,29-6.5
				c6.2-5.6,9.5-12.8,11.6-20.4c4.1-15.2,5.9-30.9,6.2-46.6c0.3-22.7,0.5-45.5-5.5-67.7c-5.2-19.2-14.6-27.6-34.1-29.7
				c-7.9-0.9-12.2,2.6-13.5,10.4c-0.6,3.9-0.8,7.9-0.8,11.8C417,123.6,417,143.4,417,163.2z"/>
			<path class="st0" d="M657,165.1c0.4,28.6-5.5,53-18.6,75.1c-11.8,20-28.8,32.9-53.5,31.6c-14.1-0.8-25.7-7.3-34.8-17.7
				c-16.3-18.4-23.8-40.7-27-64.6c-4.1-30.1-0.5-59.3,12.9-86.6c9.4-19.3,23.4-34.3,45.9-38.2c16.9-2.9,31.5,2.4,43.6,14.3
				c7.3,7.2,13.6,15.4,18,24.9c6.2,13.4,10.2,27.5,12.4,42.2C656.9,153.2,657.1,160.6,657,165.1z M556.9,164.8
				c-1.1,16.3,1,32.9,3.1,49.5c1.4,11.4,4.3,22.5,10.7,32.3c5.3,8.1,12.5,12.8,22.4,12.1c9.1-0.7,14.5-6.2,18-14.3
				c8-18.3,9.6-37.9,10.5-57.3c1-21.8,1.2-43.8-2.6-65.6c-2.2-12.6-4.7-25.1-12.8-35.6c-7.8-10-22.4-11-31.4-2
				c-7.2,7.2-10.4,16.4-12.7,26C557.6,127.8,556.2,145.9,556.9,164.8z"/>
			<path class="st0" d="M780,175.9c9.3,0,18.7,0.1,28-0.1c2.9,0,4.6,0.4,3.9,3.7c-0.1,0.3,0,0.7,0,1c0,8.6,0.1,9-8.3,10
				c-5.2,0.7-7.2,3.4-7.6,8c-0.3,3-0.3,6-0.3,9c0,20,0,40-0.1,60c0,1.7,1.2,4.6-2.3,4.2c-2.5-0.3-5.8,2-6.9-2.9
				c-1.7-6.7-4.2-13.3-6.6-19.8c-0.4-1.1-0.4-2.8-1.9-3.1c-1.5-0.2-1.6,1.5-2.2,2.4c-6.4,8.5-13.4,16.3-23.6,20.5
				c-11.2,4.6-22.3,4-33.4,0c-19.7-7.3-29.9-23.3-37.2-41.7c-8.3-20.7-10.1-42.5-9.3-64.5c0.8-22.4,5-44.3,16.8-63.8
				c8.6-14.3,19.3-27.1,36.3-32.2c17.4-5.2,33.5-3.2,47.2,9.6c2.9,2.7,4.6,2.3,6.7-0.6c1.9-2.7,4.4-5,6.1-7.9c2-3.3,5-3.3,7.8-2.7
				c3,0.7,1.6,3.7,1.6,5.6c0.2,14.3-0.2,28.7,0.4,43c0.3,8.6,0.2,17.3,0.6,25.9c0.3,4.8-3.4,3.6-5.6,4.3c-2.6,0.9-2.9-1-3.5-3.1
				c-2.8-10.9-5.6-21.9-9.1-32.6c-4.3-13-11.5-24-25-29.3c-10.6-4.2-22.3-0.5-29,8.9c-7.5,10.6-10.1,22.9-12.7,35.2
				c-3.6,17.4-3.7,35.1-3.5,52.6c0.2,20.1,1,40.5,7.6,59.9c3,8.8,6.7,17.5,15.9,21.1c13.3,5.2,26.5-0.5,32.2-16.4
				c5-14.1,4-28.8,3.6-43.4c-0.1-4.4-3-6.8-7.5-6.9c-0.3,0-0.7,0.1-1,0.1c-10.5-0.1-10.4-0.1-10.1-10.7c0.1-2.8,1.1-3.3,3.5-3.3
				C761,176,770.5,175.9,780,175.9z"/>
			<path class="st1" d="M339.8,170.5c0,33.6,0,67.3,0.1,100.9c0,3.4-0.6,4.6-4.3,4.5c-14.5-0.2-29-0.1-43.5,0.1
				c-3.3,0-4.1-1-4.1-4.2c0.1-67.4,0.1-134.9,0-202.3c0-3.9,1.2-4.6,4.8-4.6c14.2,0.2,28.3,0.2,42.5,0c3.8-0.1,4.7,1.1,4.6,4.8
				C339.7,103.2,339.8,136.9,339.8,170.5L339.8,170.5z"/>
			<path class="st0" d="M836.7,154.5c0-21-0.1-42,0.1-63c0-5.2-2.2-7.7-7-8.4c-2.1-0.3-4.3-1-6.4-0.9c-4.3,0.2-5.6-1.3-5.4-5.7
				c0.4-8.5,0.1-8.5,8.4-8.5c18.5,0,37,0.1,55.5-0.1c3.7,0,5.7,0.7,4.9,4.8c-0.1,0.5,0,1,0,1.5c0,7.6,0,7.6-7.7,7.9
				c-6.5,0.2-9.2,2.8-10.4,9c-0.5,2.6-0.7,5.2-0.7,7.9c0,32.3-0.3,64.6,0.3,96.9c0.2,11.7-0.3,23.5,3.3,35.1c3.5,11.2,11,18,22,19.8
				c15.4,2.4,25.7-2.9,31.9-14.7c4.9-9.4,7.4-19.5,7.4-30.1c0-33.5,0-67,0-100.4c0-4.2-0.7-8.2-2.3-12.1C927.9,86.8,923,83,916,82.4
				c-2.9-0.3-3.1-1.4-3.1-3.7C912.4,68,912.3,68,922.8,68c12,0,24,0.2,36-0.1c4.1-0.1,5.4,1.3,4.8,5.1c0,0.3,0,0.7,0,1
				c0.6,5-0.1,8.1-6.2,9.7c-7,1.9-10.1,8.3-11.5,15.5c-3,15.7-1.8,31.5-1.9,47.2c-0.2,21.6,0.2,43.3-0.5,64.9
				c-0.6,16.8-5.1,32.7-15.9,46.2c-7.5,9.4-17.7,12.9-29.1,14.1c-16.5,1.7-32-0.9-44.7-12.2c-9.7-8.7-13.6-20.7-15.7-33.5
				c-1.8-11.3-1.2-22.6-1.3-33.9C836.6,179.5,836.7,167,836.7,154.5z"/>
			<path class="st1" d="M281.8,170.6c0,33.6-0.1,67.3,0.1,100.9c0,3.6-0.9,4.5-4.4,4.4c-11.5-0.2-23-0.3-34.5,0
				c-4,0.1-5.3-0.8-5.3-5.1c0.2-25,0.1-50,0.1-74.9c0-42,0.1-83.9-0.1-125.9c0-4.1,1-5.3,5.2-5.2c11.3,0.3,22.7,0.2,34,0
				c3.7-0.1,5,0.7,5,4.8C281.7,103.3,281.7,137,281.8,170.6L281.8,170.6z"/>
			<path class="st1" d="M231.1,170.4c0,33.5-0.1,67,0.1,100.4c0,4.2-1,5.3-5.2,5.2c-10-0.3-20-0.2-30,0c-3.3,0.1-4.2-0.9-4.2-4.2
				c0.1-67.6,0.1-135.2,0-202.9c0-3.4,1.1-4.1,4.2-4.1c10.2,0.2,20.3,0.2,30.5,0c3.7-0.1,4.7,0.8,4.7,4.6
				C231,103.1,231.1,136.7,231.1,170.4z"/>
			<path class="st1" d="M151,170c0-33.5,0.1-66.9-0.1-100.4c0-4.2,1.4-4.9,5.1-4.8c8,0.2,16,0.3,24,0c4.1-0.2,5.2,0.9,5.2,5.1
				c-0.2,40.8-0.1,81.6-0.1,122.3c0,26.3-0.1,52.6,0.1,78.9c0,3.6-0.7,5-4.6,4.8c-8.3-0.3-16.7-0.3-25,0c-3.8,0.1-4.7-0.9-4.6-4.6
				C151.1,237.5,151,203.8,151,170z"/>
			<path class="st1" d="M116.2,170.5c0-33.6,0.1-67.3-0.1-100.9c0-3.7,0.7-5,4.6-4.8c6.6,0.3,13.3,0.3,20,0c3.8-0.2,4.3,1.3,4.3,4.6
				c-0.1,28-0.1,55.9-0.1,83.9c0,39.3-0.1,78.6,0.1,117.9c0,3.7-0.7,4.9-4.6,4.7c-6.6-0.3-13.3-0.3-20,0c-3.7,0.2-4.3-1.2-4.3-4.5
				C116.1,237.8,116.1,204.2,116.2,170.5C116.1,170.5,116.1,170.5,116.2,170.5z"/>
			<path class="st1" d="M84.2,170.5c0-33.6,0.1-67.3-0.1-100.9c0-3.7,0.7-5,4.6-4.8c5.6,0.3,11.3,0.3,17,0c3.7-0.2,4.3,1.2,4.3,4.5
				c-0.1,45-0.1,89.9-0.1,134.9c0,22.3-0.1,44.6,0.1,66.9c0,3.7-0.7,5-4.6,4.8c-5.6-0.3-11.3-0.4-17,0c-3.7,0.2-4.3-1.2-4.3-4.5
				C84.2,237.8,84.1,204.2,84.2,170.5C84.1,170.5,84.1,170.5,84.2,170.5z"/>
			<path class="st1" d="M58.2,170.5c0-33.6,0.1-67.3-0.1-100.9c0-3.6,0.7-5.2,4.6-4.7c4.9,0.6,11.5-2.1,14.3,1.1
				c2.4,2.7,0.8,9.2,0.8,14c0,63.6,0,127.2,0.1,190.8c0,4.1-0.8,5.7-5.1,5.2c-3.5-0.4-7-0.4-10.5-0.1c-3.7,0.4-4.3-1.1-4.3-4.5
				C58.2,237.8,58.1,204.1,58.2,170.5C58.1,170.5,58.1,170.5,58.2,170.5z"/>
			<path class="st1" d="M51.8,170.3c0,33.5-0.1,66.9,0.1,100.4c0,4.1-0.8,5.4-5.1,5.3c-9-0.2-9,0-9-8.7c0-65.4,0-130.9-0.1-196.3
				c0-4.5,0.6-6.4,5.8-6.1c8.2,0.5,8.3,0.1,8.3,8.6C51.8,105.7,51.8,138,51.8,170.3z"/>
			<path class="st1" d="M11.1,170.2c0-33.6,0-67.3-0.1-100.9c0-3.4,0.8-4.8,4.4-4.4c1.9,0.2,2.6,0.9,2.5,2.7
				c-0.1,1.8,0.1,3.7,0.1,5.5c0,64.8,0,129.6,0,194.3c0,0.3,0.1,0.7,0,1c-1.4,2.4,3,7.3-3.3,7.4s-3.4-4.8-3.4-7.2
				c-0.2-24.6-0.2-49.3-0.2-73.9C11.1,186.5,11.1,178.4,11.1,170.2z"/>
			<path class="st1" d="M31.1,170.5c0,33.6,0,67.3,0.1,100.9c0,3.3-0.6,4.9-4.3,4.5c-2.2-0.2-2.9-1-2.8-3c0.1-2,0.1-4,0.1-6
				c0-65.8,0-131.6,0-197.4c0-2.1-1-4.6,3-4.8c4.1-0.2,4,1.9,4,4.8C31.1,103.2,31.1,136.9,31.1,170.5z"/>
			<path class="st1" d="M119.4,353.7c2.6-8.2,5.1-16.3,7.7-24.5c1.6-5.2,3.5-10.4,4.8-15.7c0.8-3.2,2.9-2.7,5-2.6s4.6-1,5.6,2.4
				c3.9,13,8.1,25.9,12.2,38.9c0.3,1,1.2,2.7-0.7,2.7c-2.1,0-4.7,1.4-6.3-1.2c-0.3-0.4-0.3-0.9-0.5-1.4c-1-2.4-0.8-6.5-2.9-6.9
				c-4.3-1-8.9-0.7-13.4-0.3c-2.7,0.3-2.3,3.4-2.7,5.3c-0.7,3.9-2.5,5.4-6.4,4.8c-1-0.2-2-0.3-3-0.1c-5.9,1.2-9.6-0.5-10-7.1
				c-0.1-2.2-1.5-3.5-4-3.1c-1.6,0.2-3.4,0.3-5,0c-5.3-0.9-8.4,0.8-9,6.5c-0.4,4.6-4,3.9-7.1,3.7c-2.2-0.2-1-1.6-0.8-2.5
				c4-13.2,8.1-26.3,12.1-39.5c1-3.4,3.7-1.9,5.8-2.2c2.3-0.3,4,0.1,4.8,2.9c3.6,12.1,7.4,24.1,11.2,36.1c0.4,1.3,0.9,2.5,1.3,3.7
				C118.6,353.5,119,353.6,119.4,353.7z M100.5,321c-1.8,3.9-3.3,6.5-4.3,9.3c-2.2,6.3-0.9,7.8,5.9,7.6c2.9-0.1,3.3-1.2,2.6-3.7
				C103.3,330.2,102.1,326.1,100.5,321z M137.5,321.1c-2.8,5.3-3.4,10.1-5,14.6c-0.6,1.5,0.2,2.2,1.6,2.2c1.7,0,3.3-0.1,5,0
				c2.9,0.3,3.4-1.1,2.6-3.5C140.3,330.2,139.1,326.1,137.5,321.1z"/>
			<path class="st1" d="M315.4,348c6.5,0,12,0.1,17.5-0.1c2.8-0.1,3.2,1.2,3.2,3.6c0,2.3-0.3,3.6-3.2,3.6c-16.8-0.1-33.6-0.1-50.3,0
				c-2.2,0-2.9-0.7-2.8-2.9c0.1-12.8,0.1-25.6,0-38.5c0-3.1,1.6-2.9,3.7-3c2.6-0.2,3.4,0.8,3.4,3.4c-0.1,9.5,0.1,19-0.2,28.5
				c-0.1,4.2,0.6,5.9,5.3,5.6c4.4-0.3,8.9-1.2,13.2,0.7c0.7,0.3,1.1,0.2,1.5-0.6c5.5-10.4,13.1-19.5,19.6-30.5
				c-5.1,0-9.7-0.2-14.2,0.1c-3,0.2-3.2-1.3-3.2-3.6c0-2.3,0.4-3.7,3.3-3.6c6,0.2,12,0,18,0.1c1.8,0,4.5-1.2,5.3,1.1
				c0.8,2.3,0.4,4.7-1.2,7c-5.3,7.6-10.4,15.5-15.5,23.2C317.8,343.9,316.9,345.6,315.4,348z"/>
			<path class="st1" d="M227.7,324.3c-1.8,9-3.8,18.1-5.4,27.1c-0.5,2.5-1,3.7-3.9,3.8c-3.1,0-3.9-1.3-4.4-4c-1.2-7-2.7-14-4-21
				c-0.3-1.5-0.3-3.2-2.2-4.6c-1.1,2.4-0.7,4.6-0.7,6.6c-0.1,6.5-0.1,13,0,19.5c0,2.4-0.3,3.6-3.2,3.6c-3,0-3.1-1.4-3.1-3.7
				c0.1-12.3,0.1-24.6,0-36.9c0-2.6,0.4-4,3.5-3.8c8.9,0.5,7.1-1.6,8.9,7.4c1.5,7.2,3,14.5,4.5,21.7c0.4,0,0.8,0,1.2,0
				c1.7-8.3,3.7-16.6,5-25c1.1-7,6.1-3.1,9.3-3.7c3.8-0.7,2.5,2.7,2.5,4.5c0.1,12,0,24,0.1,35.9c0,2.3-0.1,3.8-3,3.8
				c-2.7,0-3.8-0.5-3.8-3.6c0.2-9.1,0.1-18.2,0.1-27.3C228.6,324.3,228.1,324.3,227.7,324.3z"/>
			<path class="st1" d="M0.1,170.5c0-33.5,0-67,0-100.4c0-1.2,0-2.3,0.1-3.5c0.1-1.3,0.9-1.6,2-1.6C3.4,65,4,65.5,4,66.7
				c0,1,0,2,0,3c0,67.1,0,134.2,0,201.4c0,1,0,2,0,3c0,1.6-1,1.8-2.3,1.8S0,275.2,0,274c0-1.8,0-3.7,0-5.5
				C0.1,235.8,0.1,203.2,0.1,170.5z"/>
			<path class="st1" d="M780,335.5c5.1,5.5,7.9,12.2,11.3,18.8c-6.9,1.7-7.1,1.7-10.3-4c-1.9-3.5-3.9-6.9-5.9-10.4
				c-0.8-1.5-1.7-2.9-3.5-3.4c-2.8-0.7-5.3-1.2-5,3.2c0.3,4.1-0.2,8.3,0.1,12.5c0.2,3.2-1.7,2.9-3.8,3s-3.4-0.1-3.3-2.8
				c0.1-12.8,0.1-25.6,0-38.4c0-2.5,0.9-3.1,3.2-3c4.7,0.2,9.3,0,14,0.1c7,0.2,10.5,2.7,11.8,8.5c1.5,6.3-1,11.9-6.8,15
				C781.3,334.6,780.8,335,780,335.5z M772.4,329.1c0.4,0,0.6,0,0.7,0c3.2-0.1,7,0.8,8.3-3.5c0.8-2.6,0.8-5.8-2-7
				c-3.8-1.6-8.1-0.8-12.1-0.3c-0.2,0-0.5,0.5-0.5,0.8c0,3.1-0.5,6.4,0.3,9.3C767.7,330.1,770.8,328.7,772.4,329.1z"/>
			<path class="st1" d="M67.6,355.9c2.5,2.8,4.5,5.4,2.1,8.7c-2.5,3.4-6.1,3.6-9.9,3.2c-1.1-0.1-1.9-0.5-1.9-1.8
				c0-1.5,1.1-1.3,2.1-1.3c1.3-0.1,2.7-0.1,3.9-0.4c1.5-0.3,2.1-1.4,2.1-2.9c-0.1-1.6-0.8-2.4-2.4-2.6c-1.7-0.2-4.4,0.9-3-2.9
				c0.5-1.5-1.6-1.4-2.4-1.8c-4.4-2.1-6.2-5.9-7.2-10.2c-0.3-1.2-1.8-3.6,1.1-3.9c1.8-0.2,4.3-1.5,5.1,2.1c1.2,5.2,5.2,6.4,10,5.8
				c3-0.4,4.9-2,5.5-4.9c0.6-3.1-1-5.1-3.9-6.1c-2.4-0.8-4.8-1.4-7.1-2.2c-8.7-3-12.5-10-9.5-17.2c2.9-6.9,12-9.5,19.6-5.7
				c3.1,1.5,5.1,3.8,5.9,7c0.3,1.3,1.9,3.6-0.6,4.1c-1.8,0.3-4.3,1.8-5.8-1.6c-1.6-3.7-8.3-4.8-11.7-2.6c-2.8,1.9-2.6,5.5,0.7,7.2
				c2.3,1.2,5,1.8,7.5,2.7c8.3,2.9,11.2,6.5,11.2,13.8C79,349.3,76.1,352.9,67.6,355.9z"/>
			<path class="st1" d="M462.8,338.6c0-8.2,0.1-16.3-0.1-24.3c-0.1-2.9,0.9-3.8,3.7-3.6c1.9,0.1,2.6,0.7,2.6,2.6c-0.1,13,0,26,0,39
				c0,1.3,0.2,2.8-1.9,2.7c-2.3-0.2-4.8,0.8-6.3-2.4c-3.6-7.6-7.7-15.1-11.5-22.6c-0.5-1-0.6-2.2-2.4-2.8c0,8.1,0,16,0,23.9
				c0,2.3,0.2,4.1-3.2,4.1c-3.4,0-3.6-1.5-3.6-4.3c0.1-11.7,0-23.3,0.1-35c0-1.7-1.6-4.7,2-5.1c3-0.3,5.2,0,6.7,3.4
				c3.2,7.1,6.9,14,10.5,21C460,336.5,460.2,338.2,462.8,338.6z"/>
			<path class="st1" d="M933.8,368c-1.1-0.6-3.7,1.1-3.7-1.7c0-2.4,2.2-1.4,3.5-1.5c2.2-0.2,4.7-0.1,5.1-2.9c0.4-2.8-1.8-3.1-4-3.2
				c-0.6,0-1.5-0.3-1.6-0.7c-2.3-5.9-10.5-8.1-10-15.8c0.1-1.4,0.4-2.2,1.9-2.1c1.8,0.1,3.7-0.9,4.8,2c2.3,5.8,4.8,6.9,10.4,5.8
				c2.7-0.5,4.6-1.9,4.9-4.9c0.3-3-0.6-5.2-3.8-6.1c-3-0.9-6-1.8-9-3c-6.4-2.5-9.5-7.9-8.4-14.1c1-5.4,5.7-9.2,12.3-9.7
				c6.2-0.6,12.5,3.3,14.1,8.8c0.4,1.4,1.7,3.5-0.7,4.1c-1.6,0.4-4.1,1.6-5.2-1.1c-1.9-4.7-6-4.1-9.7-4c-2.3,0.1-4.3,1.2-4.5,3.8
				c-0.2,2.2,1,3.7,3.2,4.4c3.1,1,6.2,2.3,9.3,3.3c6.1,2,8.5,6.6,8.9,12.5c0.4,5.6-3,10.5-8.4,12.9c-1.2,0.5-3.2,0-2,2.7
				C944.3,364.3,941.5,368.1,933.8,368z"/>
			<path class="st1" d="M21.9,327.4c0,7.6,0,15.2,0,22.7c0,2.3,1,5-3.3,5.1c-4.2,0.1-3.5-2.4-3.5-4.8c0-11.8,0-23.7,0.1-35.5
				c0-1.4-1.1-3.8,1.6-3.9c2.3-0.1,4.9-1.2,6.4,2.1c3.3,6.9,6.9,13.6,10.4,20.4c0.8,1.6,1.4,3.4,3.1,4.6c1.8-1.3,1.2-3.2,1.2-4.8
				c0.1-6.5,0.1-13,0-19.5c-0.1-2.5,0.9-3,3.2-3c2.4,0,3.1,0.7,3.1,3.1c-0.1,12.5,0,25-0.1,37.5c0,1.3,0.9,3.5-1.4,3.6
				c-2.1,0.1-4.7,1.4-6.2-1.5c-0.7-1.3-1.4-2.6-2.1-3.9c-3.8-7.5-7.5-14.9-11.3-22.4C22.7,327.2,22.3,327.3,21.9,327.4z"/>
			<path class="st1" d="M870.1,354.4c4.3-13.8,8.6-27.6,12.7-41.4c0.9-3.1,3.3-2.2,5.3-2.2c1.9,0,4.2-1,5.2,2.2
				c4,13.2,8.2,26.3,12.2,39.4c0.3,0.8,0.9,2.3-0.5,2.4c-2.1,0-4.7,1.3-6.4-1.1c-0.2-0.3-0.3-0.6-0.4-0.9c-1.2-2.6-0.8-7-3.4-7.8
				c-3.8-1.1-8.2-0.3-12.4-0.3c-3.1,0-2.8,2.7-3,4.3C878.5,354.2,876,356.4,870.1,354.4z M888.7,321.8c-0.4,0.1-0.8,0.1-1.2,0.2
				c-0.9,2.9-1.8,5.9-2.7,8.8c-2.4,7.7-2.3,7.8,5.8,7.1c2-0.2,2.8-0.7,2.3-2.6C891.5,330.7,890,326.3,888.7,321.8z"/>
			<path class="st1" d="M275.7,354.5c-5.5,1.7-8.6,0.2-9.2-5.5c-0.4-3.4-2.1-5-5.7-4.3c-0.8,0.2-1.7,0.2-2.5,0
				c-5.9-1-9.8,0.6-10.6,7.3c-0.3,2.6-4.9,4.1-7.1,2.9c-1.3-0.7-0.6-1.7-0.4-2.6c4.1-13.1,8.2-26.3,12.3-39.4
				c1.1-3.4,3.8-1.9,5.8-2.1c1.7-0.2,3.7-0.6,4.4,2C267.1,326.8,271.4,340.6,275.7,354.5z M257.4,321.3c-1.4,4.6-2.4,8.5-3.8,12.3
				c-1.3,3.4-0.3,4.6,3.2,4.2c1.3-0.1,2.6,0,4,0c1.3,0,2.4-0.3,1.8-2C260.9,331.2,260.3,326.3,257.4,321.3z"/>
			<path class="st1" d="M432.2,355c-3.2,0.7-4.5-1.3-4.5-4.1c0-4.9-2.4-6.6-7-6.1c-0.8,0.1-1.7,0.1-2.5,0c-5.5-0.8-9.1,0.5-9.7,6.9
				c-0.3,3-4.7,4.6-7.3,3.3c-1.5-0.7-0.5-1.7-0.3-2.4c4-13.2,8.1-26.3,12.1-39.5c1-3.4,3.7-2,5.8-2.2c1.9-0.2,3.7-0.5,4.6,2.4
				c3.9,13,8.1,25.9,12.2,38.9C436.7,355.6,434.4,355,432.2,355z M418.7,321.8c-0.3,0-0.7-0.1-1-0.1c-1.4,4.8-2.9,9.6-4.3,14.4
				c-0.4,1.4,0.7,1.7,1.7,1.7c1.8,0.1,3.6-0.1,5.5,0.1c2.5,0.2,2.8-1.2,2.3-3.1C421.4,330.4,420,326.1,418.7,321.8z"/>
			<path class="st1" d="M371.1,340.3c3.1-1.1,3.6,0.5,4.3,2.4c1.8,5,7,7,11.8,4.7c2.3-1.1,3.5-2.9,3.6-5.5s-1.5-4-3.6-4.8
				c-3.2-1.2-6.6-2.1-9.8-3.4c-6.2-2.5-9.2-8.4-7.7-14.3c1.7-6.2,7.4-10.1,14-9.3c6.7,0.7,11.4,4.4,12.3,9.7c0.2,1.1,1.4,3-0.8,3.1
				c-1.7,0.1-4.2,1.9-5.2-0.7c-2-4.9-5.9-4.7-9.9-4.3c-2,0.2-3.9,0.9-4.2,3.5c-0.3,2.3,0.8,3.9,2.8,4.7c3.9,1.5,7.9,2.6,11.6,4.3
				c5.9,2.7,8.3,10.1,6,16.7c-2.3,6.4-9,9.8-16.1,8.3c-6.7-1.4-11.9-7.8-11.6-13.6C368.7,338.9,370.7,340.6,371.1,340.3z"/>
			<path class="st1" d="M719,354.6c4.3-13.6,8.6-26.9,12.5-40.2c1.1-3.8,3.7-2.4,5.8-2.5c2.2-0.1,4.5-0.8,5.5,2.6
				c3.6,12.2,7.5,24.4,11.2,36.6c0.4,1.3,2,3.1,0,3.8c-1.8,0.6-4.2,0.9-6.2-0.5c-0.4-0.3-0.5-0.9-0.7-1.3c-1.1-2.7-0.7-7-3.3-7.8
				c-3.8-1.1-8.2-0.3-12.4-0.4c-3.1-0.1-2.6,2.6-3.2,4.2C726.2,355.3,726.2,355.4,719,354.6z M737.2,321.6c-2.2,3.5-2.6,7-3.6,10.2
				c-1.9,6-1.9,5.8,4.1,6.1c3.9,0.2,5-0.6,3.4-4.6C739.7,329.7,739.2,325.7,737.2,321.6z"/>
			<path class="st1" d="M473.1,354.4c4.1-13.3,8.2-26.4,12.3-39.5c0.6-1.8,0.9-3.5,3.5-3.1c2.8,0.4,6.5-1.3,7.7,2.6
				c4.2,12.7,8.1,25.6,12.1,38.3c0.3,0.9,0.5,2.2-1,2.1c-2-0.1-4.3,1-6.1-0.9c-0.2-0.2-0.3-0.6-0.4-0.9c-1.1-2.7-0.8-7.1-3.3-7.9
				c-3.8-1.2-8.2-0.3-12.4-0.5c-3.1-0.1-3,2.5-3.2,4.1C481.6,354.3,479,356.4,473.1,354.4z M491.4,321c-2.8,5.4-4.5,10.2-4.8,14.9
				c-0.2,3.7,4,1.3,6.2,1.8c2.6,0.6,3.6-0.7,2.7-3.4C494.2,330.3,493,326.2,491.4,321z"/>
			<path class="st1" d="M809.7,355c-3.7,0-7.3-0.1-11,0c-2.1,0-2.9-0.8-2.8-3c0.1-12.8,0.1-25.6,0-38.4c0-2.1,0.6-2.9,2.8-2.9
				c7.2,0.1,14.3,0.1,21.5,0c2.9-0.1,2.7,1.5,2.7,3.5c0,2.1,0.1,3.9-3,3.7c-4.6-0.2-9.3,0.1-14-0.1c-2.5-0.1-3.3,0.8-3.1,3.1
				c0.1,1.5,0.2,3,0,4.5c-0.2,2.6,0.7,3.6,3.4,3.5c4-0.2,8,0,12-0.1c1.9,0,3.6-0.1,3.5,2.8c-0.1,2.5-0.6,3.7-3.4,3.5
				c-4-0.2-8,0.1-12,0c-2.4-0.1-3.5,0.6-3.6,3.3c-0.4,9.6-0.6,9.6,9.1,9.6c2.5,0,5,0,7.5,0c2.3,0,4.5-0.6,4.4,3.3
				c0,3.8-1.9,3.9-4.6,3.8C816.1,354.9,812.9,355,809.7,355L809.7,355z"/>
			<path class="st1" d="M691.6,333.2c0,3.4,0,6.7,1.5,9.8c1.5,3.2,3.8,5.2,7.7,5.1c3.8,0,5.8-2,7-5.2c0.8-2.2,1.2-4.2,4.6-2.7
				c3.1,1.4,2.6,3.1,1.7,5.5c-2.1,5.9-6.4,9.4-12.5,9.9c-5.9,0.5-10.8-2.1-13.7-7.3c-5.3-9.9-5.4-20-0.2-30c2.9-5.6,8.1-8.5,14.4-8
				c6,0.4,10,4.1,12.2,9.6c0.6,1.6,1.4,3.5-1.1,3.9c-1.5,0.2-3.6,2.8-4.7-0.8c-1.5-4.6-5.2-5.8-9.6-5c-4.1,0.8-6,3.9-6.6,7.8
				C691.9,328.2,691.8,330.7,691.6,333.2z"/>
			<path class="st1" d="M506.4,311.3c5.8-1.8,8.6,0.3,10.7,5c1.5,3.4,2.7,9.3,5.6,9.2c3.6-0.1,4.5-5.9,5.9-9.4c2-5,4.8-6.5,10.2-4.6
				c-1.7,3.2-3.1,6.6-5.1,9.6c-6.1,9.2-9.2,19-7.7,30.1c0.3,2.3,0.2,4.1-3.2,4c-3.1,0-4.3-0.9-3.8-3.9c1.8-11.8-2-22.2-8.3-31.9
				C509.1,316.8,507.9,314.1,506.4,311.3z"/>
			<path class="st1" d="M612.8,341c-1.3,0-2.7-0.3-4,0.1c-1.7,0.4-4.3-1.6-4.9,1.6c-0.5,2.7,0.8,4.8,3.1,6.3
				c2.1,1.3,4.1,1.1,5.9-0.6c0.6-0.5,0.8-1.5,1.4-2c1.7-1.3,3.6-0.7,5.2,0.1c2.1,1.2,0.3,2.7-0.3,3.7c-3.8,6.9-14.3,7.2-18.9,0.7
				c-4.3-6.1-4.1-18,0.4-24c4.1-5.5,13-5.4,17.2,0.2c0.6,0.8,1.1,1.7,1.5,2.6C623.9,338.5,622.4,341,612.8,341z M609.2,336.4
				c1.6-1.7,5.5,2.1,5.6-2.6c0-3.3-2.3-4.8-5.6-4.9c-3.4,0-5,2.1-5.1,4.9C603.9,338.1,607.6,334.9,609.2,336.4z"/>
			<path class="st1" d="M163,335.9c0-4.7-0.3-9.3,0.1-14c0.3-3.6-1-4.5-4.4-4.3c-1.9,0.1-4.5,1.3-5.8-1.3c-1.5-3.2,0.2-5.6,3.9-5.6
				c6.7,0,13.3,0.1,20-0.1c2.8-0.1,4.2,0.5,4.2,3.7c0,3.1-1.5,3.7-4,3.4c-0.3,0-0.7,0-1,0c-5.4-1.2-6.2,1.5-6,6.2
				c0.3,9,0,18,0.1,26.9c0,2.6,0,4.2-3.6,4.2s-3.6-1.7-3.5-4.3C163.1,345.9,163,340.9,163,335.9z"/>
			<path class="st1" d="M652.3,310.8c3.5,0,7,0.2,10.5-0.1c2.8-0.2,3.3,1,3.3,3.5c0,2.4-0.5,3.6-3.3,3.7c-7.1,0.3-7.1,0.4-7.1,7.4
				c0,8.6-0.1,17.3,0.1,25.9c0.1,3.1-0.8,3.9-3.9,4c-3.5,0.1-3.2-1.8-3.2-4.1c0-9.1-0.3-18.3,0.1-27.4c0.2-4.8-1-6.7-5.9-5.9
				c-3,0.5-5.6,0.3-5-4.2c0.3-2.2,0.9-2.9,2.9-2.8C644.7,310.9,648.5,310.8,652.3,310.8L652.3,310.8z"/>
			<path class="st1" d="M837.7,335.8c0-4.7-0.2-9.3,0.1-14c0.2-3.3-0.8-4.6-4.1-4.1c-1.1,0.2-2.4-0.1-3.5,0.1
				c-2.9,0.5-3.3-1-3.3-3.4c0-2.2,0-3.8,3-3.7c7.3,0.2,14.6,0.2,22,0c3-0.1,3.1,1.4,3.1,3.6c0.1,2.5-0.5,3.5-3.3,3.5
				c-7,0.1-7,0.3-7,7.5c0,8.6-0.1,17.3,0,25.9c0,2.4-0.4,3.7-3.2,3.8c-2.8,0-4-1-3.9-3.8C837.7,346.1,837.7,341,837.7,335.8z"/>
			<path class="st1" d="M580.8,343.7c1.6-5.8,3.4-11.5,4.7-17.4c0.6-2.8,2-3.3,4.4-3.4c2.7,0,3,0.8,2.2,3.3
				c-2.6,8.4-4.9,16.8-7.3,25.3c-0.6,2.3-1.6,3.6-4.4,3.6c-2.8,0-3.7-1.3-4.4-3.6c-2.4-8.1-4.9-16.2-7.3-24.3
				c-0.4-1.4-2.2-3.3,0.4-4c2.1-0.5,4.7-0.9,5.5,2.4c1.3,5.1,2.8,10.2,4.2,15.3C579.1,341.9,579.1,343,580.8,343.7z"/>
			<path class="st1" d="M550,333.5c0,6.2-0.2,12.3,0.1,18.5c0.1,2.9-1.2,3.2-3.5,3.2s-3.6-0.3-3.6-3.2c0.2-12.6,0.2-25.3,0-37.9
				c0-2.9,1.2-3.2,3.6-3.2c2.4,0,3.6,0.5,3.5,3.3C549.9,320.5,550,327,550,333.5L550,333.5z"/>
			<path class="st1" d="M678.9,333.3c0,6.2-0.1,12.3,0,18.5c0.1,2.5-0.6,3.5-3.3,3.4s-3.8-0.6-3.8-3.6c0.2-12.3,0.2-24.6,0-36.9
				c0-3.1,1-3.8,4-3.9c3.5-0.1,3.1,2,3.1,4.1C678.9,321,678.9,327.1,678.9,333.3z"/>
			<path class="st1" d="M8.1,333.6c0,6.2-0.1,12.3,0,18.5c0,2.4-0.7,3.3-3.1,3.1c-2-0.2-4,0.3-4-2.9c0.1-12.5,0.1-24.9,0-37.4
				c0-2,0.4-3.1,2.7-3c2.4,0.1,4.4,0.2,4.4,3.3C8.1,321.2,8.1,327.4,8.1,333.6z"/>
			<path class="st1" d="M7.7,302.5c0.4,3,0.1,4.7-3.4,4.7c-3.2,0-3.4-1.4-3.3-3.9c0.1-2.5-0.2-4.6,3.5-4.3
				C7.2,299.2,8.7,299.9,7.7,302.5z"/>
			<path class="st1" d="M549.7,302.7c0.4,2.8,0,4.5-3.4,4.5c-3.2,0-3.5-1.5-3.2-3.9c0.2-1.9-1.1-4.6,2.8-4.3
				C548.4,299.2,550.6,299.4,549.7,302.7z"/>
			<path class="st1" d="M672.1,303.2c-0.8-3.3,0.8-4.1,3.9-4.2c3.4-0.2,2.7,1.9,2.8,3.8c0.1,2.5,0.2,4.5-3.4,4.4
				C672.4,307.1,671.4,306.1,672.1,303.2z"/>
			<path class="st1" d="M347.7,351c0.6,3.1-0.6,4.1-3.7,4.1c-3.6,0.1-2.9-2.2-3-4.2c-0.1-2.3-0.2-4.1,3.2-4
				C347.4,347.1,348.4,348.2,347.7,351z"/>
			<path class="st1" d="M909.7,351c-0.3-2.3-0.1-4,3.1-4.1c3.5-0.1,3,2,3.1,4.2c0,2.2,0.3,4.1-3.1,4.1
				C909.4,355.1,909.5,353.3,909.7,351z"/>
			<path class="st1" d="M963.9,351.2c-0.1,1.7,0.8,4-2.9,4c-3.2,0-3.4-1.4-3.4-3.9c0.1-2.5-0.1-4.4,3.5-4.4
				C964.4,347,963.9,348.9,963.9,351.2z"/>
		</g>
	</g>
	<g>
		<path class="st1" d="M131.3,423.5v-5.8c1.7-1.5,3.4-3,5.1-4.4c1.7-1.4,3.7-2.9,5.8-4.6c2.1-1.6,4.3-3.2,6.6-4.7
			c2.3-1.5,4.9-3.1,7.8-4.7c2.6,3.8,3.9,7.4,3.9,10.8c0,1.9-0.4,4-1.2,6.3c-0.8,2.3-1.9,4.9-3.3,7.9c-1.4,3-3.1,6.7-5.2,11.1
			c-5.5,12.3-9.7,22.4-12.4,30.3c-2.7,8-4.1,13.4-4.1,16.2c0,0.2,0.2,1.2,0.5,2.7c0.3,1.6,0.5,2.8,0.5,3.6c0,1.4-0.4,2.1-1.2,2.2
			c-0.8,0.1-1.9-0.2-3.3-0.8c-3.6-1.8-6-3.5-7.3-5.1c-1.2-1.6-1.8-3.7-1.8-6.2c0-4.6,1.7-11.6,5-21.2c1.7-4.8,3.7-9.7,5.9-14.4
			c2.3-4.8,4.8-9.6,7.5-14.6c2.7-4.9,5.3-9.4,7.8-13.6C142.7,416.9,137.1,419.8,131.3,423.5z"/>
		<path class="st1" d="M212.2,439.3c-4.9,4-9.2,7.3-12.8,9.9c-3.6,2.6-6.8,4.6-9.6,6c-2.8,1.4-5.4,2.1-7.6,2.1
			c-1.6,0-3.7-1.2-6.1-3.5c-2.4-2.3-4.5-5.2-6.2-8.6c-1.7-3.4-2.6-6.7-2.6-9.9c0-5.9,3-11.9,8.9-18.2c5.9-6.2,12.9-11.5,20.8-15.7
			c7.9-4.2,14.1-6.3,18.5-6.3c2.3,0,4.6,0.8,6.6,2.3c2.1,1.5,3.7,3.3,4.9,5.1c1.2,1.9,1.8,3.3,1.8,4.4c0,1.5-1,3.3-3,5.5
			c-2,2.1-4.2,4.1-6.7,5.8c-2.4,1.7-4,2.6-4.6,2.6c-0.3,0-0.4-0.2-0.4-0.6c0-0.6,1.4-2.2,4.1-4.9c1.5-1.5,2.3-2.7,2.3-3.7
			c0-0.6-0.3-0.9-0.8-0.9c-0.9,0-3.3,0.8-7.2,2.4c-3.9,1.6-8,3.7-12.4,6.4c-4.4,2.7-8.4,5.8-12,9.4c-2.7,2.8-4.7,5.7-6.1,8.7
			c-1.4,3-2,5.3-2,6.8c0,2.2,1.3,3.3,3.9,3.3c1.5,0,3.8-0.6,7-1.9c3.2-1.3,6.5-3,10-5.1c3.5-2.2,6.4-4.4,8.8-6.8
			c5.1-5,8.6-8.3,10.6-9.8c2-1.5,3.8-2.3,5.4-2.3c1.1,0,2.1,0.3,2.9,0.9c0.8,0.6,1.2,1.4,1.2,2.3c0,0.3-1.4,2.8-4.3,7.4
			c-8,13.2-13.9,22.7-17.7,28.7c-3.8,6-7.3,11.3-10.6,16c-3.3,4.6-6.4,8.3-9.4,11c-3,2.7-5.6,4-7.9,4c-1.4,0-2-0.9-2-2.7
			c0-1.5,1-4.1,2.9-7.8c1.9-3.7,4.3-5.5,7.1-5.4c5.6-7.8,10.1-14.3,13.5-19.5S208.2,445.6,212.2,439.3z"/>
		<path class="st1" d="M275.2,406.4l7.3,0.4c3,0.2,5,0.4,6.1,0.6s1.6,0.6,1.6,1.2c0,0.5-2.2,2-6.6,4.4c-4.4,2.4-8,4.5-10.9,6.3
			c-2.9,1.8-7,4.7-12.1,8.9c-5.2,4.2-10.3,9.2-15.4,15c-1,1.2-2,2.4-2.9,3.6c-0.9,1.2-1.7,2.3-2.4,3.4c-0.7,1.1-1.1,1.7-1.2,1.8
			c5-5.4,9.5-9.3,13.5-11.9c4-2.6,8.1-3.9,12.5-3.9c4.6,0,8.1,1.4,10.8,4.1c2.6,2.7,3.9,6.5,3.9,11.3c0,5.4-1.9,11.3-5.6,17.8
			c-3.7,6.5-8.4,12-14,16.5c-5.6,4.5-11.1,6.7-16.3,6.7c-3.2,0-6.4-1.3-9.5-3.8c-3.1-2.5-5.6-5.8-7.5-9.8c-1.9-4-2.8-8.1-2.8-12.4
			c0-5.7,2.1-12.3,6.2-19.8c4.1-7.5,10.1-14.8,17.9-22.1C255.6,417.5,264.7,411.4,275.2,406.4z M240.6,481.2c2.5,0,6-1.7,10.5-5.1
			c4.5-3.4,8.5-7.5,12-12.4c3.5-4.9,5.2-9.5,5.2-13.9c0-3.9-1.5-5.9-4.4-5.9c-3.4,0-8.7,3-15.9,9.1c-4.3,3.7-7.5,7-9.5,10
			c-2,3-3,6.4-3,10.1c0,2.9,0.4,4.9,1.2,6.2C237.5,480.5,238.8,481.2,240.6,481.2z"/>
		<path class="st1" d="M304.4,428.9c4.9,0.2,8.5,0.6,10.6,1c2.1,0.4,3.2,1.3,3.2,2.5c0,0.6-0.2,1-0.5,1.2c-0.4,0.2-0.9,0.4-1.7,0.5
			c-0.8,0.1-1.7,0.3-2.8,0.5c-1.6,0.3-4.2,0.8-7.9,1.7c-3.7,0.8-5.7,1.2-6.1,1.2c-1.8,0-2.7-1.2-2.7-3.5c0-2.1,0.4-4.7,1.3-8
			c0.9-3.2,2-6.3,3.5-9.1c1.5-2.8,3-4.8,4.7-6c1.9-1.4,4.9-2.7,9-4.1c4.1-1.4,8.6-2.6,13.7-3.5c5-1,9.7-1.4,13.8-1.4
			c2.1,0,3.7,0.3,4.7,0.9c1,0.6,1.7,1.4,2.1,2.4c0.4,1,1.1,3.1,2.1,6.2c0.9,2.9,1.4,6.1,1.4,9.8c0,4.5-1,8.3-3.1,11.6
			c-2.1,3.2-4.9,6.2-8.6,8.9c-3.7,2.7-10.1,6.9-19.2,12.6c-9.1,5.7-16.2,10.3-21.3,13.7c-0.5,0.3-1.4,1-2.9,1.9
			c-1.5,0.9-2.7,1.9-3.9,2.9s-2.3,2.3-3.5,3.8c6.3-0.6,16.3-2.3,29.9-5.1c3.7-0.8,7.3-1.7,10.8-2.6c3.5-1,5.6-1.4,6.3-1.4
			c1.2,0,1.8,0.6,1.8,1.8c0,1.1-0.2,2.4-0.7,4c-0.5,1.6-1.2,3.2-2.1,4.8c-0.9,1.6-2,3-3.3,4.2c-6.2,5.8-18.2,8.7-35.9,8.7
			c-4.6,0-7.7-0.7-9.2-2.2c-0.9-0.8-1.9-2.7-3-5.7c-1-3-1.6-5.1-1.6-6.6c0-2.4,1.2-5.4,3.6-9s5.7-7.2,9.9-10.9
			c4.2-3.7,8.8-7.1,13.8-10c15.3-8.7,23.4-13.4,24.4-14.1c3.4-2.3,6.1-4.7,8.1-7.1c1.9-2.4,2.9-4.3,2.9-5.8c0-1.3-0.5-2.3-1.6-3.1
			c-1.1-0.7-2.5-1.1-4.5-1.1c-3.1,0-6.7,0.6-11,1.7s-8.6,2.7-13,4.8C311.3,423.8,307.6,426.2,304.4,428.9z"/>
		<path class="st1" d="M381.4,412.2c0-0.3-0.2-0.4-0.6-0.4c-1.9,0-2.9-1-2.9-2.9c0-1.6,0.6-3.4,1.8-5.4c1.2-2.1,2.7-3.9,4.5-5.4
			c1.8-1.5,3.4-2.3,4.7-2.3c1.9,0,2.9,1.3,2.9,3.8c0,2.5-0.9,5.2-2.7,8.1c-1.8,2.9-3.9,5.4-6.2,7.5c-2.3,2.1-3.7,3.2-4.3,3.2
			c-0.3,0-0.4-0.1-0.4-0.4c0-0.7,0.5-1.6,1.4-2.9C380.8,413.8,381.4,412.8,381.4,412.2z"/>
		<path class="st1" d="M419.8,468.8c-4.1,4.7-7.8,8.7-11.1,12c-3.3,3.3-5.9,5.7-8,7.4s-3.4,2.4-4.2,2.4c-1.2,0-2.6-1-4.1-3
			c-1.5-2-2.8-4.5-3.9-7.5c-1.1-3.1-1.6-6.2-1.6-9.3c0-4.6,2.2-9.1,6.6-13.8c4.4-4.6,9.4-8.5,15.1-11.5s9.9-4.6,12.7-4.6
			c2.3,0,4.6,1.5,6.8,4.4c3.6-7.6,7.1-14.3,10.3-20.2c3.3-5.9,6-10.2,8.2-13.1c2.2-2.9,3.8-4.3,4.7-4.3c1,0,2,0.5,2.9,1.5
			c0.9,1,1.3,2.1,1.3,3.4c0,2.4-1.8,6.6-5.4,12.6c-3.6,5.9-7.1,11.7-10.6,17.4c-3.5,5.6-6.5,11.2-8.9,16.7
			c-2.5,5.5-3.7,10.5-3.7,15.2c0,4.2,1.4,6.3,4.1,6.3c1.6,0,3.7-0.9,6.2-2.8c2.5-1.9,6-5,10.6-9.3v5.1c-10.1,13.1-18,19.7-23.5,19.7
			c-2.2,0-3.8-0.8-4.8-2.5c-1-1.7-1.4-4.2-1.4-7.5C418.1,478.9,418.6,474,419.8,468.8z M425,451.6c-4.2,1.4-9.1,3.7-14.7,6.8
			c-5.6,3.1-9,5.3-10.2,6.4c-1,0.9-1.9,2.7-2.7,5.3c-0.8,2.6-1.2,4.5-1.2,5.8c0,0.8,0.2,1.5,0.7,2c0.5,0.5,1.1,0.8,1.8,0.8
			c0.7,0,1.4-0.3,2.3-0.8c0.8-0.6,2.2-1.7,4.1-3.3c1.9-1.6,3.1-2.7,3.6-3.2c0.8-0.7,2.6-2.2,5.3-4.5s4.8-4.1,6-5.5
			c1.3-1.3,2.3-2.8,3.2-4.4C424,455.4,424.6,453.6,425,451.6z"/>
		<path class="st1" d="M459,471.2v1.8c0,2.8,0.7,4.9,2,6.5c1.4,1.5,3.1,2.3,5.4,2.3c2.3,0,4.7-0.5,7.2-1.6c2.5-1.1,4.9-2.5,7.4-4.3
			c2.4-1.8,5.4-4.2,8.9-7.2v4.3c-5.3,6.4-10.3,11.3-14.9,14.7s-9.4,5.1-14.2,5.1c-4.2,0-7.5-1.6-9.9-4.9c-2.4-3.2-3.7-7.7-3.7-13.3
			c0-4.9,1.2-9.4,3.5-13.4c2.3-4,6.1-8.3,11.3-12.7c3.6-3.1,7.1-5.4,10.6-6.9c3.5-1.5,6.7-2.3,9.4-2.3c2.2,0,4,0.5,5.2,1.5
			c1.3,1,1.9,2.5,1.9,4.5c0,3-1.1,5.9-3.3,8.8c-2.2,2.9-5.6,5.8-10.1,8.7C471.2,465.7,465.6,468.5,459,471.2z M459.7,466.6
			c4.2-1.6,7.8-3.7,10.9-6.1c3-2.4,5.2-4.8,6.7-7c1.4-2.2,2.1-3.9,2.1-4.9c0-1.1-0.5-1.6-1.5-1.6c-0.8,0-2.2,0.5-4.1,1.6
			c-1.9,1.1-3.8,2.5-5.8,4.2c-2,1.7-3.7,3.8-5.2,6.1C461.2,461.3,460.2,463.8,459.7,466.6z"/>
		<path class="st1" d="M537.4,455.9c-8.3,9.2-12.4,15.6-12.4,19.2c0,2,0.8,3,2.5,3c1.4,0,3.1-0.7,5.3-2.1c2.2-1.4,5.6-4,10.3-7.6
			v4.9c-6.7,6.6-11.8,11.3-15.4,14.2c-3.6,2.9-6.5,4.4-8.7,4.4c-3.9,0-5.8-2.5-5.8-7.6c0-1.5,0.2-3,0.7-4.4s1.1-3,1.9-4.5
			c0.8-1.6,2.1-3.8,3.8-6.8s3.6-6.3,5.8-10c-2.7,1.4-6,4.1-10.1,8.1c-2.6,2.5-4.9,4.9-6.7,7.2c-1.8,2.3-3.8,4.8-5.9,7.6
			c-2.1,2.8-3.6,4.7-4.6,5.6c-1,1-1.9,1.4-2.9,1.4c-1.5,0-2.9-1.6-4.2-4.7c-1.3-3.1-1.9-6.8-1.9-11c0-2.6,0.3-4.6,0.9-6.1
			c0.6-1.5,1.7-3.5,3.5-6.2c3.2-5,6-8.6,8.4-11c2.3-2.3,4.6-3.5,6.8-3.5c1.5,0,2.7,0.3,3.6,0.8c0.9,0.5,1.4,1.3,1.4,2.4
			c0,0.5-0.1,1-0.4,1.5c-0.3,0.5-0.6,1-1,1.4c-0.4,0.4-1.1,1.2-2.2,2.5c-7.4,8.2-11.1,13.6-11.1,16c0,1.4,0.4,2,1.3,2
			c0.6,0,1.7-0.9,3.3-2.7c1.6-1.8,3.7-4.2,6.3-7.1c2.6-2.9,5.6-6,9.1-9.2c3.5-3.2,7.5-6.3,11.9-9.2c2.5-1.7,4.6-2.6,6.2-2.6
			c0.8,0,1.5,1,2.2,3.1c0.7,2.1,1.1,4.2,1.1,6.3C540.4,452.2,539.4,453.8,537.4,455.9z"/>
		<path class="st1" d="M629.7,468.8v4.6c-4.9,3.1-8.7,4.7-11.6,4.7c-1.5,0-3.2-0.3-4.9-0.8c-4.2,5.4-7.9,9.3-10.9,11.8
			s-6.1,3.7-9.1,3.7c-3.5,0-6.2-1.9-8.1-5.6c-1.9-3.7-2.9-8.3-2.9-13.8c0-7.5,2.3-15.6,6.8-24.4c4.5-8.8,9.9-17.1,16.3-24.7
			c6.4-7.7,12.5-14,18.5-19.1c6-5,10-7.5,12.1-7.5c2,0,3,1.4,3,4.2c0,12.3-15.8,33.8-47.4,64.4c-0.1,0.8-0.1,2.5-0.1,5
			c0,6.5,1.7,9.7,5.2,9.7c1.4,0,2.7-0.6,4.1-1.7c1.4-1.1,3.5-3.2,6.4-6.3c-1.1-2.5-1.7-4.4-1.7-5.6c0-2.6,1.1-5.4,3.2-8.4
			c2.1-3,4.5-5.6,7.2-7.8c2.7-2.2,4.7-3.3,5.9-3.3c1.9,0,2.9,1.4,2.9,4.2c0,2.1-0.6,4.7-1.7,7.6c-1.1,3-2.7,6.3-4.8,10.1
			c0.8,0.7,1.4,1.1,1.9,1.4s1.2,0.5,2.1,0.5C624.4,471.7,626.9,470.7,629.7,468.8z M593.9,458.2c2.4-2.1,4.9-4.6,7.4-7.5
			c2.5-2.9,6.1-7.3,10.8-13.3c4.6-5.7,8.1-10.5,10.7-14.3c2.6-3.8,4.6-7,5.9-9.5c1.3-2.5,2-4.3,2-5.2c0-0.7-0.2-1.1-0.6-1.1
			c-1,0-3.2,1.7-6.4,5.1c-3.3,3.4-7,8.1-11.2,14c-5.8,8.2-10,14.3-12.5,18.5C597.4,449,595.4,453.4,593.9,458.2z"/>
		<path class="st1" d="M641,471.2v1.8c0,2.8,0.7,4.9,2,6.5c1.4,1.5,3.1,2.3,5.4,2.3c2.3,0,4.7-0.5,7.2-1.6c2.5-1.1,4.9-2.5,7.4-4.3
			c2.4-1.8,5.4-4.2,8.9-7.2v4.3c-5.3,6.4-10.3,11.3-14.9,14.7c-4.7,3.4-9.4,5.1-14.2,5.1c-4.2,0-7.5-1.6-9.9-4.9
			c-2.4-3.2-3.7-7.7-3.7-13.3c0-4.9,1.2-9.4,3.5-13.4c2.3-4,6.1-8.3,11.3-12.7c3.6-3.1,7.1-5.4,10.6-6.9c3.5-1.5,6.7-2.3,9.4-2.3
			c2.2,0,4,0.5,5.2,1.5c1.3,1,1.9,2.5,1.9,4.5c0,3-1.1,5.9-3.3,8.8c-2.2,2.9-5.6,5.8-10.1,8.7S647.6,468.5,641,471.2z M641.7,466.6
			c4.2-1.6,7.8-3.7,10.9-6.1c3-2.4,5.2-4.8,6.7-7c1.4-2.2,2.1-3.9,2.1-4.9c0-1.1-0.5-1.6-1.5-1.6c-0.8,0-2.2,0.5-4.1,1.6
			c-1.9,1.1-3.8,2.5-5.8,4.2c-1.9,1.7-3.7,3.8-5.2,6.1C643.2,461.3,642.2,463.8,641.7,466.6z"/>
		<path class="st1" d="M671.2,474.1v-4.6c2.5-3,4.5-5.6,5.8-7.7c-1.5-0.5-2.6-1.2-3.3-1.9c-0.7-0.8-1-1.9-1-3.4
			c0-1.7,0.7-3.8,2.1-6.4c1.4-2.6,3.1-5,5.2-7.3s3.9-3.7,5.6-4.4c0.7-0.3,1.3-0.5,1.9-0.5c0.9,0,1.4,0.4,1.4,1.3
			c0,0.8-0.7,2.4-2.2,4.9c9.7-1.5,15.8-2.3,18.3-2.3c1,0,1.7,0.1,2,0.3c0.8,0.4,1.5,1.4,2,3c0.5,1.6,0.8,3.1,0.8,4.7
			c0,1-0.4,2.1-1.3,3.2c-0.9,1.2-2.4,2.8-4.5,5c-2.5,2.7-4.6,5.6-6.3,8.7c-1.7,3.1-2.5,5.5-2.5,7.1c0,2.2,1.4,3.3,4.1,3.3
			c2.9,0,7.8-2.9,14.9-8.7v4.7c-3.9,4.1-7.1,7.3-9.7,9.7c-2.5,2.3-4.9,4.2-7,5.6c-2.2,1.4-4.1,2.1-5.8,2.1c-2,0-3.6-0.9-4.9-2.7
			c-1.3-1.8-2-4.4-2-7.9c0-2,0.5-4.3,1.6-6.9c1-2.6,2.5-5.4,4.5-8.4c2-3,4.2-6,6.7-9.1c-1.3,0.3-2.8,0.6-4.4,0.9
			c-1.6,0.3-3.4,0.6-5.2,1c-1.8,0.3-3.2,0.6-4.2,0.8C680.9,464,676.7,469.3,671.2,474.1z"/>
		<path class="st1" d="M747.7,468.6v5.1c-4.6,5.9-8.8,10.3-12.8,13.3c-3.9,3-7.3,4.5-10.1,4.5c-3.9,0-6.7-2-8.6-6.1
			c-1.9-4-2.8-8.5-2.8-13.2c0-1.8,0.2-3.6,0.6-5.2c0.4-1.7,0.8-3,1.3-4.1c0.5-1.1,1.5-2.8,2.9-5.1c6.7-10.4,12.8-15.6,18.3-15.6
			c2.9,0,4.3,1.1,4.3,3.3c0,1.5-0.9,3.9-2.8,7c-1.9,3.2-3.5,5.5-5,6.8c-4.1,3.9-6.8,6.7-8,8.2c-1.2,1.5-1.9,3.3-1.9,5.3
			c0,1.7,0.6,3.1,1.9,4.2c1.3,1.1,2.9,1.7,4.9,1.7c2.2,0,4.6-0.8,7.3-2.4C740,474.8,743.5,472.2,747.7,468.6z M742.9,437.1
			c-1.2,0-2.3-0.4-3.3-1.3c-1.1-0.9-1.6-2-1.6-3.4c0-2.1,1-4.4,3-6.9c2-2.5,4-3.8,6.1-3.8c1.4,0,2.6,0.4,3.5,1.3
			c0.9,0.9,1.4,2.1,1.4,3.8c0,2-1,4.3-2.9,6.7C747.2,435.9,745.1,437.1,742.9,437.1z"/>
		<path class="st1" d="M757.1,491.1c-0.8,0-1.5-0.3-2-0.9s-0.8-1.5-0.8-2.5c0-0.8,0.5-2.4,1.5-4.5c1-2.2,2.3-4.1,3.8-5.8
			c1.5-1.7,3.1-2.6,4.8-2.6c2,0,3,1.2,3,3.6c0,1.3-0.5,3-1.6,5.1c-1.1,2.1-2.4,3.9-4,5.4C760.1,490.4,758.5,491.1,757.1,491.1z"/>
		<path class="st1" d="M790.7,491.1c-0.8,0-1.5-0.3-2-0.9s-0.8-1.5-0.8-2.5c0-0.8,0.5-2.4,1.5-4.5c1-2.2,2.3-4.1,3.8-5.8
			c1.5-1.7,3.1-2.6,4.8-2.6c2,0,3,1.2,3,3.6c0,1.3-0.5,3-1.6,5.1c-1.1,2.1-2.4,3.9-4,5.4C793.7,490.4,792.2,491.1,790.7,491.1z"/>
		<path class="st1" d="M824.3,491.1c-0.8,0-1.5-0.3-2-0.9s-0.8-1.5-0.8-2.5c0-0.8,0.5-2.4,1.5-4.5c1-2.2,2.3-4.1,3.8-5.8
			c1.5-1.7,3.1-2.6,4.8-2.6c2,0,3,1.2,3,3.6c0,1.3-0.5,3-1.6,5.1c-1.1,2.1-2.4,3.9-4,5.4C827.3,490.4,825.8,491.1,824.3,491.1z"/>
	</g>
</g>
</svg>
